<!-- Generated by IcoMoon.io -->
<svg version="1.1" xmlns="http://www.w3.org/2000/svg" width="1024" height="1024" viewBox="0 0 1024 1024">
<title>log-out</title>
<g id="icomoon-ignore">
</g>
<path fill="#000" d="M384 853.333h-170.667c-11.776 0-22.4-4.736-30.165-12.501s-12.501-18.389-12.501-30.165v-597.333c0-11.776 4.736-22.4 12.501-30.165s18.389-12.501 30.165-12.501h170.667c23.552 0 42.667-19.115 42.667-42.667s-19.115-42.667-42.667-42.667h-170.667c-35.328 0-67.413 14.379-90.496 37.504s-37.504 55.168-37.504 90.496v597.333c0 35.328 14.379 67.413 37.504 90.496s55.168 37.504 90.496 37.504h170.667c23.552 0 42.667-19.115 42.667-42.667s-19.115-42.667-42.667-42.667zM793.003 469.333h-409.003c-23.552 0-42.667 19.115-42.667 42.667s19.115 42.667 42.667 42.667h409.003l-140.501 140.501c-16.683 16.683-16.683 43.691 0 60.331s43.691 16.683 60.331 0l213.333-213.333c3.925-3.925 7.083-8.619 9.259-13.824 6.4-15.445 3.328-33.92-9.259-46.507l-213.333-213.333c-16.683-16.683-43.691-16.683-60.331 0s-16.683 43.691 0 60.331z"></path>
</svg>
